<svg xmlns="http://www.w3.org/2000/svg" fill="none" viewBox="-1.2 -1.2 24 24" id="Java--Streamline-Svg-Logos" height="24" width="24" style="background-color: #ffffff">
  <desc>
    Java Streamline Icon: https://streamlinehq.com
  </desc>
  <path fill="#5382a1" d="M8.0244225 16.581465s-0.8082225 0.470025 0.57519 0.6290775000000001c1.67598 0.1911825 2.5325550000000003 0.1637775 4.3794900000000005 -0.1857825 0 0 0.4855725 0.30447 1.1637225000000002 0.56817 -4.1403375 1.7744849999999999 -9.3704175 -0.10278 -6.1184025 -1.011465Z" stroke-width="0.25"></path>
  <path fill="#5382a1" d="M7.51851 14.2659225s-0.9065025000000001 0.6710175 0.477945 0.8142075c1.790325 0.1847025 3.2042025 0.1998 5.6507175 -0.2712825 0 0 0.33840000000000003 0.3430575 0.8704799999999999 0.5306624999999999 -5.0059125 1.463805 -10.581615000000001 0.115425 -6.9991425 -1.0735875Z" stroke-width="0.25"></path>
  <path fill="#e76f00" d="M11.7836325 10.337895c1.0201725 1.1745450000000002 -0.2680425 2.231505 -0.2680425 2.231505s2.5904025 -1.337265 1.4007375000000002 -3.011805c-1.1110950000000002 -1.561635 -1.9631699999999999 -2.337525 2.6496 -5.012775 0 0 -7.240522500000001 1.8083475000000002 -3.7822949999999995 5.793075Z" stroke-width="0.25"></path>
  <path fill="#5382a1" d="M17.259547500000004 18.2942325s0.598095 0.4928175 -0.65871 0.87408c-2.38986 0.7239825 -9.9468675 0.9425925 -12.0461625 0.028845000000000003 -0.75465 -0.3282975 0.66051 -0.7839 1.1056725 -0.8794799999999999 0.46426500000000004 -0.1006875 0.7295625 -0.0819225 0.7295625 -0.0819225 -0.8392275 -0.59121 -5.42451375 1.160865 -2.3290875 1.6626375 8.441685 1.36899 15.38838 -0.616455 13.198725000000001 -1.60416Z" stroke-width="0.25"></path>
  <path fill="#5382a1" d="M8.4131325 11.866635s-3.8439674999999998 0.9130275 -1.36125 1.244565c1.048275 0.140355 3.1380075 0.10860750000000001 5.08455 -0.054495 1.590795 -0.13419 3.1881600000000003 -0.4195125 3.1881600000000003 -0.4195125s-0.560925 0.24023250000000002 -0.9667575000000002 0.5173425c-3.90348 1.0266075000000001 -11.44431 0.5490225000000001 -9.2733975 -0.5010975000000001 1.8359325000000002 -0.8874675000000001 3.328695 -0.7868025000000001 3.328695 -0.7868025000000001Z" stroke-width="0.25"></path>
  <path fill="#5382a1" d="M15.3086625 15.721065c3.9680775 -2.0619675 2.133405 -4.0434975 0.8528175 -3.7765350000000004 -0.313875 0.0653175 -0.453825 0.12192750000000001 -0.453825 0.12192750000000001s0.1165275 -0.1825425 0.33907499999999996 -0.26154000000000005c2.5334100000000004 -0.8906625 4.481752500000001 2.6268975 -0.8178075 4.0200525 0 0 0.06138 -0.0548325 0.07974 -0.103905Z" stroke-width="0.25"></path>
  <path fill="#e76f00" d="M12.916282500000001 0.225s2.1975975 2.1983175000000004 -2.0843100000000003 5.5787175c-3.433635 2.7116775 -0.7829775000000001 4.2577875 -0.0014175000000000001 6.024285 -2.0042775 -1.8083475000000002 -3.4751475000000003 -3.4002225 -2.488365 -4.881825C9.790537500000001 4.77135 13.8029625 3.7169100000000004 12.916282500000001 0.225Z" stroke-width="0.25"></path>
  <path fill="#5382a1" d="M8.8030125 21.3085125c3.8088450000000003 0.24380999999999997 9.6577875 -0.13529249999999998 9.7962975 -1.9375200000000001 0 0 -0.26626500000000003 0.6832125000000001 -3.1478175 1.2258000000000002 -3.250935 0.611775 -7.2605025 0.5403600000000001 -9.638617499999999 0.14827500000000002 0 0 0.4868325 0.4029075 2.9901375000000003 0.563445Z" stroke-width="0.25"></path>
</svg>