<svg xmlns="http://www.w3.org/2000/svg" fill="none" viewBox="-1.2 -1.2 24 24" id="Mongodb--Streamline-Svg-Logos" height="24" width="24" style="background-color: #ffffff">
  <desc>
    Mongodb Streamline Icon: https://streamlinehq.com
  </desc>
  <path fill="#01ec64" d="M1.86448275 8.602245c-0.21480975 -0.25488 -0.39978674999999997 -0.51372 -0.43757775 -0.5674725 -0.003978000000000001 -0.0039825 -0.00994725 -0.0039825 -0.013923 0 -0.03779325 0.0537525 -0.222768 0.3125925 -0.43758 0.5674725 -1.8437872500000003 2.3515200000000003 0.29039625 3.9384675000000002 0.29039625 3.9384675000000002l0.017898749999999998 0.0119475c0.01590975 0.24489000000000002 0.055692 0.59733 0.055692 0.59733h0.15911775s0.03978225 -0.3504375 0.05569425 -0.59733l0.017898749999999998 -0.01395c0.00198675 0.0020025 2.13617025 -1.584945 0.292383 -3.936465Zm-0.445536 3.902625s-0.09546975 -0.0816525 -0.12132675 -0.123435v-0.004005l0.11536199999999999 -2.56059c0 -0.007965 0.011934 -0.007965 0.011934 0l0.11535975 2.56059v0.004005c-0.025856999999999998 0.0417825 -0.12132900000000002 0.123435 -0.12132900000000002 0.123435Z" stroke-width="0.25"></path>
  <path fill="#000000" d="m5.4129375 11.982375000000001 -0.889335 -2.1721275 -0.0020025 -0.005985h-0.6919425v0.1460025h0.1116675c0.0339075 0 0.0658125 0.013995 0.0897525 0.0380025 0.0239175 0.023985 0.0358875 0.056002500000000004 0.0358875 0.09000000000000001l-0.019935 2.1861225c0 0.06799500000000001 -0.0558225 0.12399750000000001 -0.1236375 0.12600000000000003l-0.11367 0.00198v0.1440225h0.6739875v-0.1440225l-0.069795 -0.00198c-0.0677925 -0.0020025 -0.1236375 -0.058004999999999994 -0.1236375 -0.12600000000000003v-2.0601225000000003l0.96912 2.332125c0.01395 0.03399750000000001 0.045855 0.056002500000000004 0.081765 0.056002500000000004 0.0358875 0 0.0677925 -0.022005 0.08174250000000001 -0.056002500000000004l0.94716 -2.2801275000000003 0.0139725 2.008125c0 0.0699975 -0.055845 0.12600000000000003 -0.12561750000000002 0.12798h-0.0717975v0.1440225h0.7896375v-0.1440225h-0.107685c-0.0677925 0 -0.1236375 -0.0579825 -0.12561750000000002 -0.12600000000000003l-0.005985 -2.1860999999999997c0 -0.0699975 0.0558225 -0.12600000000000003 0.1236375 -0.1280025l0.11565 -0.0020025v-0.1460025h-0.6739875l-0.889335 2.1781125Zm6.2009549999999996 0.3719475c-0.022005 -0.022027500000000002 -0.03399750000000001 -0.0520875 -0.03399750000000001 -0.088155v-1.0739025c0 -0.204345 -0.0599625 -0.36463500000000004 -0.1799325 -0.478845 -0.1179225 -0.11421000000000002 -0.28187999999999996 -0.172305 -0.48577499999999996 -0.172305 -0.2859075 0 -0.5118075000000001 0.1162125 -0.6697575 0.34461 -0.0020025 0.004005 -0.0079875 0.006030000000000001 -0.0139725 0.006030000000000001 -0.006030000000000001 0 -0.0100125 -0.0040275 -0.0100125 -0.010035l-0.07398 -0.286515h-0.1239525l-0.3178575 0.18231750000000002v0.10019249999999999h0.0819675c0.03798 0 0.0699525 0.0100125 0.0919575 0.03006 0.0219825 0.0200475 0.033975 0.050085 0.033975 0.09216v1.2642300000000002c0 0.0360675 -0.0119925 0.0661275 -0.033975 0.0881775 -0.022005 0.022005 -0.051975 0.034042499999999996 -0.0879525 0.034042499999999996h-0.0799875v0.14625000000000002h0.7317v-0.14625000000000002h-0.079965c-0.035977499999999996 0 -0.06597 -0.0120375 -0.0879525 -0.034042499999999996 -0.0219825 -0.02205 -0.03399750000000001 -0.052110000000000004 -0.03399750000000001 -0.0881775v-0.8374725000000001c0 -0.1062 0.0240075 -0.2123775 0.06799500000000001 -0.316575 0.0459675 -0.1021725 0.11394 -0.188325 0.2039175 -0.25443 0.089955 -0.0661275 0.19791 -0.09819 0.32186250000000005 -0.09819 0.13995 0 0.2459025 0.0440775 0.31187250000000005 0.1322325 0.06597 0.0881775 0.0999675 0.202365 0.0999675 0.3386025v1.0338525c0 0.036045 -0.0119925 0.0660825 -0.03399750000000001 0.0881325 -0.0219825 0.02205 -0.051975 0.034065000000000005 -0.0879525 0.034065000000000005h-0.079965v0.14625000000000002h0.7317v-0.14625000000000002h-0.0799425c-0.029992500000000002 0.004005 -0.058004999999999994 -0.00801 -0.08199000000000001 -0.03006Zm6.68511 -2.38653c-0.202275 -0.107685 -0.4283325 -0.16353 -0.6722325 -0.16353H16.674975v0.145575h0.09321750000000001c0.035685 0 0.06741 0.0139725 0.099135 0.0458775 0.029745000000000004 0.029925000000000004 0.0456075 0.0638325 0.0456075 0.09972v2.1460275c0 0.0358875 -0.015862499999999998 0.069795 -0.0456075 0.09972 -0.029745000000000004 0.0299025 -0.06344999999999999 0.045855 -0.099135 0.045855h-0.09321750000000001v0.14559750000000002h0.9517950000000001c0.24390000000000003 0 0.4699575 -0.0558225 0.6722325 -0.16353 0.20223000000000002 -0.10770750000000001 0.36684 -0.2672775 0.4857975 -0.47067749999999997 0.11898000000000002 -0.20344500000000001 0.18045000000000003 -0.4487625 0.18045000000000003 -0.7279875 0 -0.27920249999999996 -0.061470000000000004 -0.52254 -0.18045000000000003 -0.727965 -0.12096 -0.207405 -0.28356750000000003 -0.36497250000000003 -0.4857975 -0.47468250000000006Zm0.283545 1.198665c0 0.25528500000000004 -0.0456075 0.47067749999999997 -0.1348425 0.6441975000000001 -0.08923500000000001 0.17352 -0.208215 0.3031425 -0.35496 0.3869325 -0.1467 0.08376750000000001 -0.3093075 0.12564 -0.4838175 0.12564h-0.19233c-0.0357075 0 -0.0674325 -0.01395 -0.0991575 -0.0458775 -0.029745000000000004 -0.0299025 -0.045585 -0.06381 -0.045585 -0.09972v-2.0243475c0 -0.03591 0.01386 -0.067815 0.045585 -0.09972 0.029745000000000004 -0.029925000000000004 0.06344999999999999 -0.0458775 0.0991575 -0.0458775h0.19233c0.17451 0 0.3371175 0.041895 0.4838175 0.12564 0.14674500000000001 0.08376750000000001 0.26572500000000004 0.2134125 0.35496 0.3869325 0.08923500000000001 0.17550000000000002 0.1348425 0.392895 0.1348425 0.6462Zm2.6325225000000003 0.14559750000000002c-0.08802 -0.10172250000000001 -0.2579175 -0.18747000000000003 -0.45764999999999995 -0.23337 0.2758275 -0.13761 0.4176225 -0.331065 0.4176225 -0.580365 0 -0.13563 -0.035865 -0.2572875 -0.10795500000000001 -0.3610125 -0.07188750000000001 -0.10368 -0.17385750000000003 -0.18747000000000003 -0.30370500000000006 -0.245295 -0.13005 -0.0578475 -0.28199250000000003 -0.08775000000000001 -0.45387 -0.08775000000000001h-1.0773675v0.145575h0.08595c0.035977499999999996 0 0.06795 0.0139725 0.09994499999999999 0.0458775 0.029992500000000002 0.029925000000000004 0.0459675 0.0638325 0.0459675 0.09972v2.1460275c0 0.0358875 -0.015975 0.069795 -0.0459675 0.09972 -0.029970000000000004 0.0299025 -0.0639675 0.045855 -0.09994499999999999 0.045855h-0.09396v0.14559750000000002h1.169415c0.1778625 0 0.34375500000000003 -0.0299025 0.49371750000000003 -0.0897525 0.1499625 -0.059827500000000006 0.26984250000000004 -0.1475775 0.35588250000000005 -0.26325 0.08781749999999999 -0.1156725 0.1318275 -0.2572875 0.1318275 -0.42084000000000005 -0.00198 -0.17550000000000002 -0.053955 -0.3251025 -0.1599075 -0.4467375Zm-1.34127 0.9672975c-0.029992500000000002 -0.029925000000000004 -0.04599 -0.06381 -0.04599 -0.09972v-0.9633375000000001h0.555795c0.1957725 0 0.345735 0.0498825 0.449685 0.14960250000000003 0.10395 0.09972 0.15592499999999998 0.229365 0.15592499999999998 0.3889125 0 0.0957375 -0.0240975 0.1894725 -0.06790500000000001 0.2752425 -0.04599 0.08775000000000001 -0.11412 0.1575675 -0.20592000000000002 0.21141000000000001 -0.0900225 0.0538425 -0.2019375 0.081765 -0.331785 0.081765h-0.40988250000000004c-0.035955 0 -0.06795 -0.01395 -0.0999225 -0.043875000000000004Zm-0.043987500000000006 -1.2684825v-0.855585c0 -0.03591 0.013995 -0.067815 0.0459675 -0.09974250000000001 0.029992500000000002 -0.0299025 0.0639675 -0.045855 0.0999675 -0.045855h0.2638575c0.18981 0 0.329805 0.047857500000000004 0.417825 0.13959 0.08784 0.09375750000000001 0.13185 0.2134125 0.13185 0.3610125 0 0.1515825 -0.04203 0.27324 -0.123885 0.36497250000000003 -0.082035 0.0897525 -0.20592000000000002 0.13560750000000002 -0.36980999999999997 0.13560750000000002h-0.46577250000000003Zm-11.001465000000001 -0.34254c-0.15275249999999999 -0.08347500000000001 -0.3233475 -0.127215 -0.5078025 -0.127215 -0.17964 0 -0.347985 0.0395775 -0.4958775 0.12055500000000001l-0.0119475 0.00666c-0.15275249999999999 0.08347500000000001 -0.2737575 0.20470500000000003 -0.363015 0.35777250000000005 -0.0892575 0.15304500000000001 -0.13488750000000002 0.33194250000000003 -0.13488750000000002 0.5306850000000001 0 0.198765 0.045630000000000004 0.3776625 0.13488750000000002 0.5307075 0.0892575 0.15304500000000001 0.2102625 0.2742975 0.363015 0.35777250000000005s0.3233475 0.127215 0.5078250000000001 0.127215c0.1796175 0 0.3479625 -0.0395775 0.49585500000000005 -0.12055500000000001l0.0119475 -0.00666c0.15275249999999999 -0.08347500000000001 0.2737575 -0.2047275 0.363015 -0.35777250000000005 0.0892575 -0.15304500000000001 0.13488750000000002 -0.33194250000000003 0.13488750000000002 -0.5307075 0 -0.1987425 -0.045630000000000004 -0.37764 -0.13488750000000002 -0.5306850000000001 -0.0892575 -0.1530675 -0.2102625 -0.2742975 -0.363015 -0.35777250000000005Zm0.14681249999999998 0.8884575c0 0.244485 -0.0595125 0.44325 -0.17856 0.58635 -0.1170225 0.1431225 -0.277695 0.2166525 -0.47605500000000006 0.2166525 -0.19482750000000001 0 -0.3533175 -0.0709425 -0.46977749999999996 -0.20904750000000002l-0.0063 -0.007605c-0.1190475 -0.1431 -0.1785375 -0.34186500000000003 -0.1785375 -0.58635 0 -0.24003 0.05735250000000001 -0.4359825 0.17210250000000002 -0.5784750000000001l0.006435000000000001 -0.0078525c0.1170225 -0.1431225 0.2777175 -0.216675 0.4760775 -0.216675 0.19836 0 0.3590325 0.0735525 0.47605500000000006 0.216675 0.1190475 0.1431 0.17856 0.34186500000000003 0.17856 0.5863275Zm6.883290000000001 -0.8884575c-0.15275249999999999 -0.08347500000000001 -0.3233475 -0.127215 -0.5078250000000001 -0.127215 -0.1796175 0 -0.347985 0.0395775 -0.4958775 0.12055500000000001l-0.0119475 0.00666c-0.15275249999999999 0.08347500000000001 -0.2737575 0.20470500000000003 -0.363015 0.35777250000000005 -0.0892575 0.15304500000000001 -0.13488750000000002 0.33194250000000003 -0.13488750000000002 0.5306850000000001 0 0.198765 0.045630000000000004 0.3776625 0.13488750000000002 0.5307075 0.0892575 0.15304500000000001 0.2102625 0.2742975 0.363015 0.35777250000000005s0.3233475 0.127215 0.5078250000000001 0.127215c0.1796175 0 0.3479625 -0.0395775 0.4958775 -0.12055500000000001l0.0119475 -0.00666c0.15273 -0.08347500000000001 0.273735 -0.2047275 0.363015 -0.35777250000000005 0.0892575 -0.15304500000000001 0.134865 -0.33194250000000003 0.134865 -0.5307075 0 -0.1987425 -0.0456075 -0.37764 -0.134865 -0.5306850000000001 -0.08928 -0.1530675 -0.212265 -0.2742975 -0.363015 -0.35777250000000005Zm0.14679 0.8884575c0 0.244485 -0.059535000000000005 0.44325 -0.1785375 0.58635 -0.117045 0.1431225 -0.2777175 0.2166525 -0.4760775 0.2166525 -0.19485 0 -0.3533175 -0.0709425 -0.46977749999999996 -0.20904750000000002l-0.0063 -0.007605c-0.119025 -0.1431 -0.1785375 -0.34186500000000003 -0.1785375 -0.58635 0 -0.2419875 0.05735250000000001 -0.43605 0.17210250000000002 -0.5784750000000001l0.006435000000000001 -0.0078525c0.1170225 -0.1431225 0.277695 -0.216675 0.4760775 -0.216675 0.19836 0 0.3590325 0.0735525 0.4760775 0.216675 0.1170225 0.1431 0.1785375 0.34186500000000003 0.1785375 0.5863275Zm-2.981925 -1.0156725c-0.15984 0 -0.30564 0.03393 -0.43751249999999997 0.10183500000000001 -0.13185 0.06788250000000001 -0.2357325 0.15975 -0.30966750000000004 0.27756000000000003 -0.07389000000000001 0.11580750000000001 -0.1118475 0.24561 -0.1118475 0.3833775 0 0.123795 0.027945 0.23762250000000001 0.0858825 0.33945749999999997 0.055935 0.09785250000000001 0.1318725 0.1797075 0.227745 0.24759l-0.2856825 0.3873825c-0.035955 0.047925 -0.0399375 0.1118025 -0.0139725 0.1637325 0.0279675 0.05391 0.07989750000000001 0.0858825 0.1398375 0.0858825h0.0819225c-0.07658999999999999 0.05166 -0.1384875 0.11247750000000001 -0.182205 0.18425249999999999l-0.0056025 0.009405c-0.051930000000000004 0.08586 -0.077895 0.17572500000000002 -0.077895 0.26757000000000003 0 0.16866 0.073215 0.30843000000000004 0.2177775 0.41364l0.0079425 0.0056925c0.14784750000000002 0.10584 0.3556125 0.15975 0.61731 0.15975 0.18182250000000003 0 0.3556125 -0.0299475 0.5134500000000001 -0.08786250000000001 0.15525 -0.05625 0.2822175 -0.1388925 0.3772575 -0.24605999999999997l0.0083025 -0.0095175c0.0978975 -0.11182500000000001 0.14784750000000002 -0.2476125 0.14784750000000002 -0.4033575 0 -0.1637325 -0.05994000000000001 -0.2795625 -0.1998 -0.391365 -0.119835 -0.09387000000000001 -0.3076425 -0.14377500000000001 -0.5413950000000001 -0.14377500000000001h-0.7990875c-0.0011925 0 -0.0024075 -0.00072 -0.0031725 -0.001305l-0.0008325 -0.0006975 -0.00036 -0.0008325c-0.00045000000000000004 -0.0012825 -0.0010575 -0.0037125 0.00036 -0.0051525l0.207765 -0.27954c0.0559575 0.0259425 0.1078875 0.041917499999999996 0.1538325 0.051907499999999995 0.047947500000000004 0.00999 0.10188 0.0139725 0.16182 0.0139725 0.16782750000000002 0 0.31965750000000004 -0.03393 0.451485 -0.10183500000000001 0.1318725 -0.06788250000000001 0.2377575 -0.1597275 0.31367249999999997 -0.27756000000000003 0.0758925 -0.11580750000000001 0.11385 -0.2455875 0.11385 -0.383355 0 -0.14778000000000002 -0.07191 -0.4173525 -0.267705 -0.5551200000000001 0 -0.0011925 0.0007425 -0.0016875 0.001305 -0.0018675l0.00072 -0.000135 0.4295025 0.047925v-0.19768500000000003H13.358925c-0.107865 -0.03393 -0.219735 -0.05391 -0.33561 -0.05391Zm0.2397375 1.2499875c-0.0759375 0.0399375 -0.15783750000000002 0.0618975 -0.2397375 0.0618975 -0.1338525 0 -0.25173 -0.047925 -0.3516075 -0.14175000000000001 -0.09987750000000001 -0.09387000000000001 -0.1498275 -0.23163750000000002 -0.1498275 -0.4073625 0 -0.1757025 0.04995 -0.3134925 0.1498275 -0.40734000000000004 0.09987750000000001 -0.09384750000000001 0.217755 -0.1417725 0.3516075 -0.1417725 0.080415 0 0.15714 0.0183375 0.23022000000000004 0.056767500000000005l0.0095175 0.00513c0.075915 0.0399375 0.137835 0.10183500000000001 0.187785 0.1837125 0.047947500000000004 0.0818775 0.0739125 0.18369000000000002 0.0739125 0.3035025 0 0.121815 -0.023985 0.2236275 -0.0739125 0.303525 -0.047947500000000004 0.08185500000000001 -0.11187 0.1437525 -0.187785 0.18369000000000002Zm-0.5413950000000001 0.734805h0.5413950000000001c0.1498275 0 0.2457225 0.0299475 0.309645 0.09387000000000001 0.063945 0.0638775 0.09589500000000001 0.1497375 0.09589500000000001 0.2495925 0 0.14575500000000002 -0.0579375 0.2655675 -0.17379 0.35543250000000004 -0.1158975 0.089865 -0.27171 0.1357875 -0.4635 0.1357875 -0.16782750000000002 0 -0.307665 -0.0379575 -0.409545 -0.10984500000000001 -0.10190250000000001 -0.07186500000000001 -0.1538325 -0.18171 -0.1538325 -0.3214575 0 -0.087885 0.023985 -0.16974 0.0719325 -0.24162750000000002 0.047947500000000004 -0.07188750000000001 0.1058625 -0.12381750000000001 0.18180000000000002 -0.1617525Z" stroke-width="0.25"></path>
</svg>